# xmcd
#
# Track frame offsets:
#	150
#	31790
#	58152
#	81420
#	108330
#	133827
#	155237
#	180142
#	202467
#	228927
#	244750
#	278125
#	300190
#
# Disc length: 4356 seconds
#
# Revision: 1
# Processed by: cddbd v1.4PL0 Copyright (c) Steve Scherf et al.
# Submitted via: audiograbber 1.80
#
DISCID=af11020d
DTITLE=George Michael - The Best Of
DYEAR=1900
DGENRE=
TTITLE0=Jesus To A Child
TTITLE1=Father Figure
TTITLE2=Careless Whisper
TTITLE3=Dont Let The Sun Go Down On Me
TTITLE4=You Have Been Loved
TTITLE5=Kissing A Fool
TTITLE6=I Cant Make You Love Me
TTITLE7=Heal The Pain
TTITLE8=A Moment With You
TTITLE9=Desafinado
TTITLE10=Cowboys And Angels
TTITLE11=One More Try
TTITLE12=A Different Corner
EXTD=
EXTT0=
EXTT1=
EXTT2=
EXTT3=
EXTT4=
EXTT5=
EXTT6=
EXTT7=
EXTT8=
EXTT9=
EXTT10=
EXTT11=
EXTT12=
PLAYORDER=
